<?xml version="1.0" standalone="no"?>
<!DOCTYPE svg PUBLIC "-//W3C//DTD SVG 20010904//EN"
 "http://www.w3.org/TR/2001/REC-SVG-20010904/DTD/svg10.dtd">
<svg version="1.0" xmlns="http://www.w3.org/2000/svg"
 width="581.000000pt" height="604.000000pt" viewBox="0 0 581.000000 604.000000"
 preserveAspectRatio="xMidYMid meet">

<g transform="translate(0.000000,604.000000) scale(0.100000,-0.100000)"
fill="#000000" stroke="none">
<path d="M2854 5690 c-53 -11 -121 -45 -374 -190 -113 -65 -302 -170 -420
-235 -235 -129 -303 -166 -520 -290 -80 -45 -235 -133 -345 -195 -110 -62
-252 -142 -315 -177 -63 -36 -134 -81 -158 -100 -58 -47 -99 -122 -110 -202
-6 -40 -9 -634 -8 -1476 l1 -1410 31 -72 c59 -136 104 -172 444 -353 69 -36
181 -98 250 -137 113 -64 225 -124 815 -443 99 -54 241 -132 315 -174 74 -42
190 -105 258 -139 121 -61 125 -62 205 -62 76 0 89 3 168 41 47 23 126 64 175
91 447 248 806 446 1059 583 105 57 269 147 365 200 96 53 230 125 298 160
155 80 199 118 241 210 27 59 35 89 41 173 4 56 7 710 5 1452 -3 1469 0 1388
-58 1488 -33 55 -69 83 -186 141 -51 26 -169 90 -262 142 -424 236 -512 286
-624 351 -66 39 -203 117 -305 173 -102 56 -293 164 -425 240 -304 174 -348
196 -420 209 -66 12 -82 12 -141 1z m225 -167 c42 -21 139 -75 216 -119 77
-44 266 -152 420 -239 154 -86 309 -174 345 -195 36 -21 108 -61 160 -90 52
-29 136 -76 185 -105 121 -70 324 -184 410 -230 129 -69 228 -130 257 -159 16
-16 41 -52 56 -80 l27 -51 -1 -1401 c-1 -1116 -4 -1408 -14 -1440 -25 -76 -56
-109 -153 -162 -51 -27 -182 -99 -292 -160 -110 -60 -279 -151 -375 -202 -96
-51 -227 -123 -290 -160 -63 -37 -191 -109 -285 -160 -93 -51 -201 -112 -240
-135 -38 -24 -97 -56 -130 -73 -33 -16 -95 -51 -138 -76 -167 -99 -237 -129
-303 -130 -57 -1 -72 4 -205 71 -79 40 -187 96 -239 126 -206 117 -262 148
-435 242 -99 54 -299 164 -445 245 -146 81 -350 193 -453 249 -244 132 -347
194 -374 223 -12 13 -32 46 -45 73 l-23 50 -3 1414 -3 1414 26 53 c36 73 96
122 255 211 74 41 167 93 205 115 39 23 125 72 193 109 68 38 236 134 375 213
139 78 284 160 322 181 39 21 120 66 180 100 95 54 333 185 475 263 138 75
215 78 339 15z"/>
<path d="M2762 5404 c-70 -37 -176 -95 -237 -129 -60 -34 -155 -86 -210 -115
-55 -29 -116 -63 -135 -75 -19 -12 -66 -39 -105 -60 -109 -59 -560 -312 -725
-407 -52 -30 -169 -97 -260 -148 -221 -125 -238 -137 -262 -184 l-21 -41 7
-1097 c5 -892 4 -1098 -6 -1098 -7 0 -2 -6 12 -14 14 -7 88 -49 165 -93 220
-125 642 -360 850 -473 105 -57 224 -122 265 -145 41 -23 111 -62 155 -85 89
-47 309 -169 485 -268 63 -36 132 -75 153 -86 l37 -21 63 34 c34 19 132 75
217 126 85 50 216 124 290 165 74 40 194 105 265 145 72 40 207 114 300 165
94 51 238 132 320 180 158 91 226 129 417 229 64 33 147 78 185 100 l68 39 6
443 c3 244 3 743 1 1109 l-4 665 -32 33 c-28 30 -156 106 -666 392 -190 107
-648 366 -795 450 -560 320 -579 330 -648 330 -15 0 -84 -30 -155 -66z m227
-170 c12 -15 21 -35 21 -45 0 -12 16 -27 43 -40 23 -12 130 -72 237 -134 230
-133 385 -215 404 -215 8 0 28 -13 44 -30 17 -16 33 -30 36 -30 3 0 169 -93
369 -207 199 -113 381 -214 404 -223 53 -20 56 -24 48 -49 -9 -29 -37 -26 -66
5 -13 14 -46 37 -74 51 -79 40 -605 343 -655 377 -28 19 -59 31 -83 32 -28 2
-48 11 -71 32 -26 26 -450 276 -497 294 -23 9 -127 76 -133 87 -3 5 -22 1 -41
-9 -42 -22 -68 -17 -96 18 -36 46 -2 112 57 112 23 0 38 -7 53 -26z m-139 -93
c0 -14 -33 -37 -122 -86 -68 -38 -186 -103 -264 -147 -77 -43 -146 -78 -152
-78 -21 0 -13 18 21 43 53 40 492 287 510 287 4 0 7 -8 7 -19z m-600 -266 c43
-32 50 -43 50 -83 0 -67 -46 -115 -110 -115 -43 0 -110 65 -110 108 1 39 19
72 56 96 39 26 73 24 114 -6z m994 -205 c157 -90 286 -168 286 -172 0 -4 -24
-20 -52 -34 -62 -31 -300 -167 -374 -212 -28 -18 -54 -32 -57 -32 -3 0 -28
-13 -56 -29 l-49 -29 -99 52 c-181 97 -454 251 -480 272 l-27 21 45 28 c24 16
69 43 99 60 30 18 96 56 145 85 167 99 290 160 311 157 12 -2 150 -77 308
-167z m-1156 48 c-6 -19 -58 -50 -402 -245 -182 -103 -315 -172 -324 -168 -13
5 -12 8 3 25 10 11 27 23 39 26 11 4 35 17 51 29 17 12 109 66 205 120 96 54
224 127 285 162 106 61 151 77 143 51z m310 -374 c86 -48 211 -116 277 -152
127 -68 145 -80 145 -93 0 -4 -28 -23 -62 -42 -62 -33 -137 -76 -268 -152 -36
-20 -101 -55 -145 -77 -44 -22 -87 -46 -96 -54 -13 -12 -27 -8 -100 29 -46 24
-133 72 -194 107 -60 35 -152 87 -204 116 -52 29 -101 60 -109 68 -14 13 -12
17 14 31 108 59 430 238 484 268 36 20 73 37 83 37 10 0 89 -39 175 -86z
m1507 -59 c61 -34 148 -81 195 -105 128 -65 144 -84 93 -111 -16 -7 -50 -27
-78 -44 -27 -17 -95 -55 -150 -85 -55 -30 -149 -83 -210 -118 -97 -57 -112
-63 -130 -51 -11 7 -135 77 -275 155 -140 79 -264 150 -275 158 -20 15 -20 16
5 35 24 19 366 213 494 280 l58 31 82 -42 c44 -23 131 -69 191 -103z m-2580
-14 c0 -31 -31 -52 -45 -31 -5 8 -10 25 -10 38 0 20 4 23 28 20 21 -2 27 -8
27 -27z m3442 -150 c6 -10 31 -23 55 -29 56 -14 79 -40 113 -129 l28 -71 -23
-59 c-45 -116 -49 -124 -85 -139 -19 -7 -46 -14 -60 -14 -14 0 -28 -6 -31 -14
-8 -22 -35 -28 -53 -13 -9 7 -35 19 -58 26 -23 6 -55 23 -71 36 -50 42 -103
201 -73 219 4 3 11 19 14 35 10 47 68 104 129 125 29 11 57 25 61 33 12 19 40
16 54 -6z m-3574 -2 c45 -12 108 -71 138 -130 31 -61 24 -152 -15 -203 -94
-124 -249 -122 -332 3 -66 100 -30 261 71 318 44 25 81 28 138 12z m1845 -131
c53 -28 153 -84 222 -123 69 -39 158 -89 198 -110 39 -20 72 -43 72 -50 0 -7
-93 -66 -207 -131 -115 -65 -219 -125 -233 -134 -14 -9 -53 -31 -86 -49 l-62
-32 -148 84 c-82 46 -214 120 -293 163 -79 43 -146 84 -148 90 -4 13 42 43
192 126 55 31 163 92 240 137 77 44 144 81 148 81 5 0 52 -23 105 -52z m-1462
23 c10 -11 69 -44 284 -164 80 -44 184 -104 233 -134 l87 -54 0 -355 c0 -238
-3 -354 -10 -354 -14 0 -78 33 -153 79 -34 21 -120 68 -192 106 -71 37 -165
90 -207 117 l-78 50 0 359 c0 288 3 359 13 359 7 0 17 -4 23 -9z m-418 -844
c2 -462 2 -467 -18 -467 -20 0 -20 6 -20 471 0 443 1 470 18 467 16 -3 17 -35
20 -471z m1270 367 c109 -61 447 -252 460 -260 7 -4 14 -724 8 -724 -4 0 -78
40 -164 89 -87 49 -222 124 -302 168 l-145 78 -3 363 c-1 199 0 362 3 362 3 0
67 -34 143 -76z m1639 42 c22 -19 28 -32 27 -65 -2 -55 -26 -88 -74 -102 -36
-11 -44 -10 -68 8 -40 30 -48 62 -27 107 13 27 31 44 59 57 52 23 50 24 83 -5z
m691 -197 c3 -44 5 -47 36 -53 19 -4 51 -19 73 -35 36 -26 40 -27 61 -13 29
19 39 9 25 -27 -8 -23 -6 -42 13 -97 12 -38 28 -70 33 -72 13 -4 15 -42 2 -42
-4 0 -21 -28 -36 -62 -25 -56 -26 -62 -11 -73 24 -18 19 -28 -11 -22 -19 4
-52 -6 -105 -31 l-77 -37 -1 -47 c0 -33 -4 -48 -13 -48 -23 0 -37 23 -37 59 0
35 -2 37 -78 73 -70 33 -79 35 -94 21 -19 -17 -48 -11 -48 10 0 8 9 22 19 31
18 17 18 20 4 62 -10 30 -23 48 -39 54 -31 12 -34 60 -5 60 14 0 21 10 26 37
4 21 13 49 21 64 12 23 11 29 -1 39 -8 7 -15 21 -15 31 0 15 5 17 28 13 19 -4
45 4 86 25 32 17 67 31 77 31 16 0 19 8 19 51 0 47 2 50 23 47 19 -3 22 -10
25 -49z m-3738 -50 c23 -42 -13 -95 -46 -68 -14 12 -19 70 -7 82 13 14 43 6
53 -14z m248 -16 c-4 -52 -28 -56 -28 -4 0 30 4 41 16 41 11 0 14 -9 12 -37z
m2116 -134 c30 -24 35 -69 12 -122 -28 -68 -116 -91 -155 -41 -39 49 -19 127
42 164 41 25 68 25 101 -1z m936 -353 l0 -364 -32 -11 c-17 -6 -93 -46 -167
-90 -75 -43 -165 -94 -201 -114 -36 -20 -94 -56 -130 -81 l-65 -46 -6 128 c-4
70 -7 235 -8 367 l-1 240 178 99 c97 55 229 130 292 167 63 37 121 68 128 69
9 0 12 -79 12 -364z m-2578 238 c106 -59 246 -136 310 -173 l117 -66 3 -355
c2 -195 1 -358 -3 -363 -3 -4 -59 26 -125 66 -66 41 -178 105 -249 144 -72 39
-158 87 -192 107 l-63 37 0 354 c0 195 2 355 5 355 3 0 91 -48 197 -106z
m-389 34 c19 -26 19 -28 3 -53 -13 -19 -24 -25 -44 -23 -37 4 -52 47 -28 83
21 31 42 29 69 -7z m-346 0 c29 -27 29 -39 -2 -68 -23 -22 -25 -22 -50 -6 -35
23 -40 41 -21 71 20 31 43 32 73 3z m260 -214 c-8 -72 -27 -80 -27 -11 0 46 3
57 16 57 14 0 16 -8 11 -46z m2341 -458 l-2 -365 -26 -11 c-14 -6 -80 -44
-148 -83 -68 -40 -182 -107 -255 -149 -73 -42 -139 -84 -148 -92 -9 -9 -19
-16 -22 -16 -4 0 -7 162 -7 360 l0 359 73 49 c39 27 113 72 162 100 50 28 150
87 224 131 74 45 138 81 143 81 4 0 7 -164 6 -364z m-973 154 c94 -51 190
-106 213 -120 l44 -27 -2 -364 c0 -200 -3 -365 -5 -367 -2 -2 -63 32 -137 76
-135 80 -334 195 -420 241 l-48 26 0 363 0 364 93 -50 c50 -27 169 -91 262
-142z m-1670 85 c18 -13 35 -21 39 -18 3 4 6 1 6 -6 0 -6 12 -16 26 -21 26
-10 453 -255 789 -452 94 -55 262 -151 375 -212 279 -152 505 -277 627 -348
56 -32 106 -58 110 -58 10 0 11 -226 1 -235 -11 -11 -515 261 -993 535 -55 32
-122 69 -150 84 -27 14 -64 34 -80 44 -17 9 -65 37 -107 61 -71 41 -78 48
-102 102 -28 66 -50 84 -122 99 -45 10 -58 20 -131 98 -56 60 -99 96 -138 116
-63 31 -105 86 -105 135 0 29 -29 58 -43 44 -4 -3 -11 6 -16 20 -5 14 -16 27
-23 30 -7 3 -9 6 -4 6 5 1 24 -10 41 -24z m3985 -79 c0 -21 -456 -286 -493
-286 -24 0 61 61 148 106 50 26 108 60 131 75 23 15 79 46 125 68 97 46 89 42
89 37z m70 -114 c0 -19 -32 -44 -135 -102 -60 -35 -128 -75 -150 -90 -22 -14
-79 -48 -127 -74 -78 -44 -87 -52 -93 -84 -9 -46 -41 -92 -65 -92 -24 0 -78
54 -86 86 -7 28 15 67 47 85 17 8 31 8 59 -1 34 -11 41 -10 76 12 21 14 84 51
139 82 55 31 147 86 205 121 101 62 130 74 130 57z m-3866 -73 c38 -30 56 -71
56 -126 0 -59 -18 -88 -65 -103 -30 -10 -41 -9 -72 7 -88 46 -98 183 -15 227
38 21 65 20 96 -5z m3882 -108 c-4 -5 -46 -31 -94 -57 -48 -26 -161 -90 -252
-143 -199 -115 -249 -141 -268 -141 -48 0 437 291 568 341 46 18 57 18 46 0z
m-3586 -91 c49 -35 46 -143 -5 -176 -80 -52 -154 88 -89 165 30 36 55 39 94
11z m2900 -35 c-7 -20 -14 -34 -17 -31 -3 2 1 20 8 40 17 46 25 38 9 -9z
m-2758 -203 c76 -47 172 -102 293 -170 222 -123 467 -259 545 -302 47 -26 117
-65 155 -87 39 -22 134 -73 212 -114 l143 -74 0 -97 c0 -54 1 -101 3 -105 7
-22 -37 -8 -108 33 -44 25 -141 79 -215 119 -74 40 -211 116 -305 170 -93 54
-251 141 -350 195 -267 144 -386 210 -422 232 -33 19 -33 20 -33 98 0 71 8
140 16 140 1 0 31 -17 66 -38z m2414 -63 c13 -15 19 -36 19 -69 0 -78 -55
-115 -113 -74 -18 12 -22 25 -22 67 0 67 20 97 64 97 21 0 40 -8 52 -21z
m-540 -277 c17 -11 34 -48 34 -74 0 -32 -34 -85 -60 -93 -49 -16 -98 58 -77
118 15 45 70 71 103 49z"/>
<path d="M4632 4010 c-55 -40 -66 -62 -59 -129 10 -94 63 -143 160 -149 72 -4
114 16 147 70 17 27 19 43 14 88 -8 64 -17 80 -70 120 -32 24 -49 29 -95 30
-46 0 -63 -5 -97 -30z m159 -60 c10 -14 21 -39 25 -56 14 -71 -86 -119 -138
-66 -30 30 -28 95 4 129 30 32 83 29 109 -7z"/>
<path d="M1125 4049 c-45 -12 -86 -59 -92 -107 -9 -67 5 -130 32 -148 151 -99
293 88 165 216 -42 42 -63 50 -105 39z"/>
<path d="M1802 3558 c-7 -7 -12 -33 -12 -58 0 -52 24 -83 72 -95 40 -10 83 34
74 78 -12 62 -98 111 -134 75z"/>
<path d="M2507 3172 c-10 -11 -17 -36 -17 -61 0 -36 6 -49 34 -77 60 -60 126
-38 126 42 0 46 -19 78 -60 99 -38 20 -63 19 -83 -3z"/>
<path d="M4656 3270 c-64 -25 -91 -52 -110 -108 -25 -73 -22 -82 24 -82 33 0
49 7 88 42 26 24 48 43 49 43 7 1 14 125 7 125 -5 -1 -31 -10 -58 -20z"/>
<path d="M4754 3234 l-7 -56 49 -45 c40 -36 58 -46 97 -50 39 -5 47 -3 47 10
0 36 -34 113 -59 135 -29 25 -95 62 -110 62 -5 0 -13 -25 -17 -56z"/>
<path d="M4692 3108 c-15 -15 -16 -50 0 -66 19 -19 42 -14 68 13 19 20 22 30
14 43 -13 21 -65 27 -82 10z"/>
<path d="M4536 3018 c19 -64 46 -99 94 -123 73 -37 80 -35 80 29 0 49 -3 57
-35 85 -31 27 -43 31 -91 31 -53 0 -55 -1 -48 -22z"/>
<path d="M4793 3009 c-42 -29 -43 -32 -43 -85 0 -42 3 -54 15 -54 19 0 94 37
118 58 14 13 57 94 57 108 0 2 -24 4 -52 4 -42 -1 -62 -7 -95 -31z"/>
<path d="M3975 2706 c-45 -45 -46 -120 -1 -132 29 -7 81 18 97 48 15 28 14 75
-2 94 -18 22 -67 17 -94 -10z"/>
<path d="M1800 2720 c-18 -18 -21 -29 -16 -64 7 -47 52 -96 90 -96 58 0 77 87
29 139 -38 42 -75 49 -103 21z"/>
<path d="M3268 2313 c-48 -51 -49 -120 -3 -141 53 -24 115 26 115 94 0 75 -61
100 -112 47z"/>
<path d="M2510 2330 c-27 -27 -27 -98 0 -133 11 -14 36 -31 56 -37 30 -10 38
-9 54 5 45 41 28 128 -32 165 -41 25 -53 25 -78 0z"/>
<path d="M1071 2326 c-7 -8 -13 -26 -14 -41 -3 -36 45 -75 71 -59 20 13 27 65
12 94 -12 23 -52 27 -69 6z"/>
<path d="M1394 2119 c-3 -6 -1 -16 5 -22 8 -8 11 -5 11 11 0 24 -5 28 -16 11z"/>
<path d="M4732 1714 c-121 -60 -192 -197 -147 -284 17 -33 65 -70 91 -70 30 0
100 39 150 83 50 44 94 123 94 170 0 68 -52 127 -113 127 -12 0 -46 -12 -75
-26z m88 -44 c35 -19 41 -44 24 -100 -13 -43 -22 -56 -62 -81 -26 -16 -64 -35
-85 -41 -48 -14 -57 -4 -57 65 0 38 5 53 25 72 35 36 45 31 45 -20 0 -37 3
-45 19 -45 33 0 44 25 27 59 -21 40 -20 50 6 78 24 26 31 27 58 13z"/>
<path d="M1024 1706 c-12 -8 -29 -31 -38 -51 -44 -91 45 -257 161 -301 80 -31
153 1 173 76 21 78 -41 197 -133 254 -57 35 -131 45 -163 22z m133 -76 c34
-17 66 -36 72 -44 6 -7 18 -42 28 -79 17 -64 17 -66 -2 -87 -21 -24 -35 -23
-121 6 -46 16 -54 23 -78 71 -30 61 -32 92 -11 133 19 38 37 37 112 0z"/>
<path d="M1114 1536 c-11 -28 4 -46 36 -46 28 0 31 3 28 28 -2 21 -9 28 -31
30 -18 2 -29 -2 -33 -12z"/>
<path d="M4191 1364 c-12 -9 -31 -36 -41 -60 -22 -49 -29 -53 -55 -24 -21 23
-34 25 -59 7 -16 -12 -15 -16 24 -53 l42 -41 -43 -81 c-23 -45 -40 -84 -37
-88 14 -14 50 21 78 76 17 33 34 60 38 60 5 0 15 -11 22 -25 16 -30 26 -31 62
-7 l28 18 -40 39 c-22 22 -40 43 -40 48 0 4 14 35 30 69 41 82 39 95 -9 62z"/>
<path d="M4955 1349 c-27 -17 -90 -50 -139 -75 -48 -25 -86 -47 -84 -50 8 -7
102 28 123 46 11 10 40 29 65 44 45 26 100 66 90 65 -3 0 -27 -14 -55 -30z"/>
<path d="M4370 1355 c-14 -17 -7 -45 13 -45 24 0 51 26 44 44 -8 20 -40 21
-57 1z"/>
<path d="M1476 1325 c-9 -23 22 -47 45 -35 15 9 17 15 9 30 -13 23 -45 26 -54
5z"/>
<path d="M3932 1230 c-19 -18 -22 -31 -22 -111 l0 -89 -32 -20 c-20 -12 -36
-16 -42 -10 -5 5 -11 43 -14 84 -5 76 -11 86 -41 67 -11 -7 -14 -28 -12 -81 3
-90 12 -115 49 -134 26 -13 31 -13 58 3 49 30 84 78 85 119 6 143 5 192 0 192
-4 0 -17 -9 -29 -20z"/>
<path d="M1701 1231 c-19 -12 -17 -58 4 -81 21 -24 67 -26 85 -5 14 17 7 57
-16 79 -17 18 -51 21 -73 7z"/>
<path d="M4647 1186 c-78 -45 -86 -55 -12 -18 69 36 94 52 80 51 -5 0 -36 -15
-68 -33z"/>
<path d="M4515 1114 c-64 -33 -77 -46 -33 -31 30 11 101 56 88 57 -3 0 -28
-12 -55 -26z"/>
<path d="M1898 1119 c-24 -13 -23 -54 2 -79 25 -25 42 -25 63 -2 22 24 21 34
-4 66 -22 28 -34 31 -61 15z"/>
<path d="M3661 1094 c-21 -15 -22 -21 -16 -90 4 -41 3 -74 -1 -74 -5 1 -29 21
-54 45 -44 44 -64 52 -86 37 -11 -8 -5 -245 8 -257 3 -4 16 -1 28 5 19 10 22
19 20 78 -1 37 -2 71 -1 76 1 5 21 -10 46 -33 24 -22 51 -41 59 -41 39 0 41 7
38 133 -2 67 -7 125 -11 129 -4 4 -17 1 -30 -8z"/>
<path d="M4530 1084 c0 -14 3 -15 18 -3 9 7 19 15 21 16 2 2 -5 3 -17 3 -14 0
-22 -6 -22 -16z"/>
<path d="M4398 1049 c-21 -11 -38 -22 -38 -24 0 -3 18 4 40 15 22 11 40 23 40
25 0 7 0 7 -42 -16z"/>
<path d="M2072 1018 c-20 -20 -14 -56 14 -75 32 -20 58 -8 62 29 5 44 -46 76
-76 46z"/>
<path d="M2248 939 c-39 -22 -8 -89 40 -89 47 0 49 65 2 90 -22 12 -21 12 -42
-1z"/>
<path d="M3372 941 c-10 -6 -11 -36 -6 -139 4 -73 10 -132 13 -132 3 1 16 9
27 18 20 17 21 25 16 140 -4 104 -7 122 -21 122 -9 0 -22 -4 -29 -9z"/>
<path d="M4205 934 c-31 -16 -54 -34 -43 -34 9 0 78 41 78 46 0 6 -2 5 -35
-12z"/>
<path d="M4048 852 c-48 -26 -91 -52 -95 -56 -7 -8 186 91 196 100 17 15 -28
-4 -101 -44z"/>
<path d="M2420 830 c-17 -32 7 -75 44 -75 40 0 56 27 36 63 -20 35 -64 42 -80
12z"/>
<path d="M3168 833 c-23 -6 -24 -12 -18 -155 l5 -127 83 46 c69 37 82 49 82
70 0 21 -3 23 -22 18 -13 -4 -37 -16 -54 -26 l-31 -19 -7 46 c-3 26 -6 71 -6
100 0 30 -3 53 -7 53 -5 -1 -15 -3 -25 -6z"/>
<path d="M2605 737 c-20 -31 -8 -67 30 -87 25 -14 28 -13 46 9 24 29 24 43 2
69 -29 33 -59 37 -78 9z"/>
<path d="M3653 627 c-34 -18 -65 -36 -69 -40 -15 -14 91 34 116 53 34 27 26
24 -47 -13z"/>
<path d="M3523 559 c-46 -29 -41 -36 5 -8 46 28 47 29 36 29 -5 0 -24 -10 -41
-21z"/>
<path d="M3450 516 c-14 -8 -59 -33 -100 -57 -41 -24 -147 -78 -234 -122 -105
-51 -155 -81 -147 -86 12 -8 68 6 81 19 8 8 32 12 65 12 17 0 24 2 18 5 -25 9
-12 22 16 17 20 -4 30 -2 34 10 4 10 1 16 -9 16 -8 0 -13 4 -9 10 3 5 12 7 20
4 8 -3 31 0 51 6 27 9 33 15 23 21 -11 8 -10 12 6 21 11 7 26 13 34 14 8 2 17
7 20 12 11 17 71 43 83 36 7 -4 8 -3 4 4 -4 6 5 17 22 26 16 8 34 22 41 30 16
19 13 20 -19 2z"/>
<path d="M4415 5525 c-16 -14 -36 -25 -42 -25 -9 0 -13 -18 -13 -59 0 -61 5
-71 60 -119 l26 -22 49 19 50 19 -3 58 c-2 42 2 62 14 75 16 18 16 19 -15 19
-24 0 -41 9 -61 30 -15 17 -30 30 -32 30 -1 -1 -16 -12 -33 -25z"/>
<path d="M667 5416 c-25 -18 -63 -40 -86 -51 -23 -10 -41 -21 -41 -26 0 -10
164 -99 183 -99 16 0 174 87 182 100 3 5 -29 27 -70 49 -117 64 -116 64 -168
27z"/>
<path d="M1349 5381 c-38 -38 -40 -91 -4 -126 33 -33 70 -32 106 4 58 58 22
150 -59 151 -8 0 -27 -13 -43 -29z"/>
<path d="M848 5228 l-88 -53 0 -117 c0 -76 4 -118 10 -118 6 0 47 21 90 46
l80 46 0 124 c0 68 -1 124 -2 124 -2 0 -42 -24 -90 -52z"/>
<path d="M518 5262 c-2 -4 -4 -59 -3 -122 l0 -115 93 -48 92 -48 0 119 c0 84
-4 122 -12 129 -32 24 -167 92 -170 85z"/>
<path d="M5090 4944 c0 -8 5 -12 10 -9 6 3 10 10 10 16 0 5 -4 9 -10 9 -5 0
-10 -7 -10 -16z"/>
<path d="M199 4817 c-18 -12 -44 -38 -57 -57 -20 -30 -23 -44 -20 -103 3 -62
6 -70 41 -105 33 -33 43 -37 85 -36 64 1 129 37 160 89 75 130 -87 295 -209
212z m129 -60 c34 -36 44 -83 27 -124 -26 -62 -114 -75 -157 -22 -28 33 -24
101 8 138 33 40 89 43 122 8z"/>
</g>
</svg>
